<mxfile host="app.diagrams.net" agent="Mozilla/5.0 (Windows NT 10.0; Win64; x64) AppleWebKit/537.36 (KHTML, like Gecko) Chrome/133.0.0.0 Safari/537.36" version="26.0.14">
  <diagram name="Page-1" id="BD34WWjabv434RT4bymT">
    <mxGraphModel dx="1434" dy="1886" grid="1" gridSize="10" guides="1" tooltips="1" connect="1" arrows="1" fold="1" page="1" pageScale="1" pageWidth="850" pageHeight="1100" math="0" shadow="0">
      <root>
        <mxCell id="0" />
        <mxCell id="1" parent="0" />
        <mxCell id="uMUd2mh9hgz1i7TkNqJM-9" value="" style="edgeStyle=orthogonalEdgeStyle;rounded=0;orthogonalLoop=1;jettySize=auto;html=1;startArrow=classic;startFill=1;shape=link;fillColor=#bac8d3;strokeColor=#999999;" edge="1" parent="1" source="uMUd2mh9hgz1i7TkNqJM-2" target="uMUd2mh9hgz1i7TkNqJM-3">
          <mxGeometry relative="1" as="geometry" />
        </mxCell>
        <mxCell id="uMUd2mh9hgz1i7TkNqJM-21" value="1.Send Events" style="edgeLabel;html=1;align=center;verticalAlign=middle;resizable=0;points=[];" vertex="1" connectable="0" parent="uMUd2mh9hgz1i7TkNqJM-9">
          <mxGeometry x="0.0022" y="-1" relative="1" as="geometry">
            <mxPoint as="offset" />
          </mxGeometry>
        </mxCell>
        <mxCell id="uMUd2mh9hgz1i7TkNqJM-2" value="Windows 10 Client&lt;div&gt;Wazuh Agent&lt;/div&gt;" style="fontColor=#0066CC;verticalAlign=top;verticalLabelPosition=bottom;labelPosition=center;align=center;html=1;outlineConnect=0;fillColor=#CCCCCC;strokeColor=#6881B3;gradientColor=none;gradientDirection=north;strokeWidth=2;shape=mxgraph.networks.pc;" vertex="1" parent="1">
          <mxGeometry x="375" y="470" width="100" height="70" as="geometry" />
        </mxCell>
        <mxCell id="uMUd2mh9hgz1i7TkNqJM-10" value="" style="edgeStyle=orthogonalEdgeStyle;rounded=0;orthogonalLoop=1;jettySize=auto;html=1;shape=link;strokeColor=#999999;" edge="1" parent="1" source="uMUd2mh9hgz1i7TkNqJM-3" target="uMUd2mh9hgz1i7TkNqJM-4">
          <mxGeometry relative="1" as="geometry" />
        </mxCell>
        <mxCell id="uMUd2mh9hgz1i7TkNqJM-3" value="Router" style="sketch=0;verticalLabelPosition=bottom;sketch=0;aspect=fixed;html=1;verticalAlign=top;strokeColor=none;fillColor=#000000;align=center;outlineConnect=0;pointerEvents=1;shape=mxgraph.citrix2.wifi_router;" vertex="1" parent="1">
          <mxGeometry x="400" y="260" width="49.9" height="50" as="geometry" />
        </mxCell>
        <mxCell id="uMUd2mh9hgz1i7TkNqJM-11" value="" style="edgeStyle=orthogonalEdgeStyle;rounded=0;orthogonalLoop=1;jettySize=auto;html=1;shape=link;strokeColor=#999999;" edge="1" parent="1" source="uMUd2mh9hgz1i7TkNqJM-4" target="uMUd2mh9hgz1i7TkNqJM-5">
          <mxGeometry relative="1" as="geometry" />
        </mxCell>
        <mxCell id="uMUd2mh9hgz1i7TkNqJM-13" value="2. Receive Events" style="edgeLabel;html=1;align=center;verticalAlign=middle;resizable=0;points=[];" vertex="1" connectable="0" parent="uMUd2mh9hgz1i7TkNqJM-11">
          <mxGeometry x="-0.0199" y="3" relative="1" as="geometry">
            <mxPoint as="offset" />
          </mxGeometry>
        </mxCell>
        <mxCell id="uMUd2mh9hgz1i7TkNqJM-31" style="rounded=0;orthogonalLoop=1;jettySize=auto;html=1;shape=link;strokeColor=#FF3399;" edge="1" parent="1" source="uMUd2mh9hgz1i7TkNqJM-4" target="uMUd2mh9hgz1i7TkNqJM-7">
          <mxGeometry relative="1" as="geometry">
            <Array as="points">
              <mxPoint x="360" y="-40" />
            </Array>
          </mxGeometry>
        </mxCell>
        <mxCell id="uMUd2mh9hgz1i7TkNqJM-4" value="Internet" style="outlineConnect=0;dashed=0;verticalLabelPosition=bottom;verticalAlign=top;align=center;html=1;shape=mxgraph.aws3.internet;fillColor=#b1ddf0;strokeColor=#10739e;" vertex="1" parent="1">
          <mxGeometry x="385" y="60" width="79.5" height="79.5" as="geometry" />
        </mxCell>
        <mxCell id="uMUd2mh9hgz1i7TkNqJM-16" style="rounded=0;orthogonalLoop=1;jettySize=auto;html=1;shape=link;strokeColor=#CC0000;" edge="1" parent="1" source="uMUd2mh9hgz1i7TkNqJM-5" target="uMUd2mh9hgz1i7TkNqJM-7">
          <mxGeometry relative="1" as="geometry" />
        </mxCell>
        <mxCell id="uMUd2mh9hgz1i7TkNqJM-17" value="3. Send Alerts" style="edgeLabel;html=1;align=center;verticalAlign=middle;resizable=0;points=[];" vertex="1" connectable="0" parent="uMUd2mh9hgz1i7TkNqJM-16">
          <mxGeometry x="0.1131" y="-5" relative="1" as="geometry">
            <mxPoint as="offset" />
          </mxGeometry>
        </mxCell>
        <mxCell id="uMUd2mh9hgz1i7TkNqJM-34" style="edgeStyle=orthogonalEdgeStyle;rounded=0;orthogonalLoop=1;jettySize=auto;html=1;shape=link;strokeColor=#FF3399;" edge="1" parent="1" source="uMUd2mh9hgz1i7TkNqJM-5" target="uMUd2mh9hgz1i7TkNqJM-2">
          <mxGeometry relative="1" as="geometry">
            <Array as="points">
              <mxPoint x="160" y="500" />
            </Array>
          </mxGeometry>
        </mxCell>
        <mxCell id="uMUd2mh9hgz1i7TkNqJM-35" value="8. Perform Responsive Action" style="edgeLabel;html=1;align=center;verticalAlign=middle;resizable=0;points=[];" vertex="1" connectable="0" parent="uMUd2mh9hgz1i7TkNqJM-34">
          <mxGeometry x="-0.0719" y="5" relative="1" as="geometry">
            <mxPoint as="offset" />
          </mxGeometry>
        </mxCell>
        <mxCell id="uMUd2mh9hgz1i7TkNqJM-5" value="Wazuh Manager" style="outlineConnect=0;dashed=0;verticalLabelPosition=bottom;verticalAlign=top;align=center;html=1;shape=mxgraph.aws3.internet;fillColor=#b1ddf0;strokeColor=#10739e;" vertex="1" parent="1">
          <mxGeometry x="120" y="70" width="79.5" height="79.5" as="geometry" />
        </mxCell>
        <mxCell id="uMUd2mh9hgz1i7TkNqJM-6" value="TheHive" style="outlineConnect=0;dashed=0;verticalLabelPosition=bottom;verticalAlign=top;align=center;html=1;shape=mxgraph.aws3.internet;fillColor=#b1ddf0;strokeColor=#10739e;" vertex="1" parent="1">
          <mxGeometry x="710" y="70" width="79.5" height="79.5" as="geometry" />
        </mxCell>
        <mxCell id="uMUd2mh9hgz1i7TkNqJM-18" style="edgeStyle=orthogonalEdgeStyle;rounded=0;orthogonalLoop=1;jettySize=auto;html=1;shape=link;strokeColor=#66CC00;" edge="1" parent="1" source="uMUd2mh9hgz1i7TkNqJM-7" target="uMUd2mh9hgz1i7TkNqJM-4">
          <mxGeometry relative="1" as="geometry">
            <mxPoint x="425" y="-90.5" as="sourcePoint" />
            <mxPoint x="425" y="70" as="targetPoint" />
          </mxGeometry>
        </mxCell>
        <mxCell id="uMUd2mh9hgz1i7TkNqJM-19" value="4. Enrich IOCS" style="edgeLabel;html=1;align=center;verticalAlign=middle;resizable=0;points=[];" vertex="1" connectable="0" parent="uMUd2mh9hgz1i7TkNqJM-18">
          <mxGeometry x="-0.1464" y="-1" relative="1" as="geometry">
            <mxPoint as="offset" />
          </mxGeometry>
        </mxCell>
        <mxCell id="uMUd2mh9hgz1i7TkNqJM-22" style="rounded=0;orthogonalLoop=1;jettySize=auto;html=1;shape=link;strokeColor=#CC0000;" edge="1" parent="1" source="uMUd2mh9hgz1i7TkNqJM-7" target="uMUd2mh9hgz1i7TkNqJM-6">
          <mxGeometry relative="1" as="geometry" />
        </mxCell>
        <mxCell id="uMUd2mh9hgz1i7TkNqJM-24" value="5. Send Alerts" style="edgeLabel;html=1;align=center;verticalAlign=middle;resizable=0;points=[];" vertex="1" connectable="0" parent="uMUd2mh9hgz1i7TkNqJM-22">
          <mxGeometry x="-0.097" y="6" relative="1" as="geometry">
            <mxPoint as="offset" />
          </mxGeometry>
        </mxCell>
        <mxCell id="uMUd2mh9hgz1i7TkNqJM-25" style="edgeStyle=entityRelationEdgeStyle;rounded=0;orthogonalLoop=1;jettySize=auto;html=1;shape=link;strokeColor=#004C99;" edge="1" parent="1" source="uMUd2mh9hgz1i7TkNqJM-7" target="uMUd2mh9hgz1i7TkNqJM-4">
          <mxGeometry relative="1" as="geometry">
            <mxPoint x="530" y="80" as="targetPoint" />
            <mxPoint x="464.5" y="-130.20000000000005" as="sourcePoint" />
            <Array as="points">
              <mxPoint x="480" y="-10" />
              <mxPoint x="400" />
            </Array>
          </mxGeometry>
        </mxCell>
        <mxCell id="uMUd2mh9hgz1i7TkNqJM-26" value="6. Send Email" style="edgeLabel;html=1;align=center;verticalAlign=middle;resizable=0;points=[];" vertex="1" connectable="0" parent="uMUd2mh9hgz1i7TkNqJM-25">
          <mxGeometry x="0.4838" y="-2" relative="1" as="geometry">
            <mxPoint as="offset" />
          </mxGeometry>
        </mxCell>
        <mxCell id="uMUd2mh9hgz1i7TkNqJM-32" style="edgeStyle=orthogonalEdgeStyle;rounded=0;orthogonalLoop=1;jettySize=auto;html=1;shape=link;strokeColor=#FF3399;" edge="1" parent="1" source="uMUd2mh9hgz1i7TkNqJM-7" target="uMUd2mh9hgz1i7TkNqJM-5">
          <mxGeometry relative="1" as="geometry" />
        </mxCell>
        <mxCell id="uMUd2mh9hgz1i7TkNqJM-33" value="8. Send Responsive Action" style="edgeLabel;html=1;align=center;verticalAlign=middle;resizable=0;points=[];" vertex="1" connectable="0" parent="uMUd2mh9hgz1i7TkNqJM-32">
          <mxGeometry x="0.2093" y="-1" relative="1" as="geometry">
            <mxPoint as="offset" />
          </mxGeometry>
        </mxCell>
        <mxCell id="uMUd2mh9hgz1i7TkNqJM-7" value="Shuffle" style="outlineConnect=0;dashed=0;verticalLabelPosition=bottom;verticalAlign=top;align=center;html=1;shape=mxgraph.aws3.internet;fillColor=#b1ddf0;strokeColor=#10739e;" vertex="1" parent="1">
          <mxGeometry x="385" y="-210" width="79.5" height="79.5" as="geometry" />
        </mxCell>
        <mxCell id="uMUd2mh9hgz1i7TkNqJM-29" style="rounded=0;orthogonalLoop=1;jettySize=auto;html=1;shape=link;strokeColor=#FF3399;" edge="1" parent="1" source="uMUd2mh9hgz1i7TkNqJM-8" target="uMUd2mh9hgz1i7TkNqJM-4">
          <mxGeometry relative="1" as="geometry">
            <Array as="points">
              <mxPoint x="530" y="240" />
            </Array>
          </mxGeometry>
        </mxCell>
        <mxCell id="uMUd2mh9hgz1i7TkNqJM-30" value="8. Send Response Action" style="edgeLabel;html=1;align=center;verticalAlign=middle;resizable=0;points=[];" vertex="1" connectable="0" parent="uMUd2mh9hgz1i7TkNqJM-29">
          <mxGeometry x="-0.1297" y="3" relative="1" as="geometry">
            <mxPoint as="offset" />
          </mxGeometry>
        </mxCell>
        <mxCell id="uMUd2mh9hgz1i7TkNqJM-8" value="SOC Analyst" style="fontColor=#0066CC;verticalAlign=top;verticalLabelPosition=bottom;labelPosition=center;align=center;html=1;outlineConnect=0;fillColor=#CCCCCC;strokeColor=#6881B3;gradientColor=none;gradientDirection=north;strokeWidth=2;shape=mxgraph.networks.pc;" vertex="1" parent="1">
          <mxGeometry x="680" y="220" width="100" height="70" as="geometry" />
        </mxCell>
        <mxCell id="uMUd2mh9hgz1i7TkNqJM-27" style="rounded=0;orthogonalLoop=1;jettySize=auto;html=1;entryX=1;entryY=0.47;entryDx=0;entryDy=0;entryPerimeter=0;shape=link;strokeColor=#004C99;" edge="1" parent="1" source="uMUd2mh9hgz1i7TkNqJM-8" target="uMUd2mh9hgz1i7TkNqJM-4">
          <mxGeometry relative="1" as="geometry" />
        </mxCell>
        <mxCell id="uMUd2mh9hgz1i7TkNqJM-28" value="7. Send and Receive Email" style="edgeLabel;html=1;align=center;verticalAlign=middle;resizable=0;points=[];" vertex="1" connectable="0" parent="uMUd2mh9hgz1i7TkNqJM-27">
          <mxGeometry x="0.1661" y="-3" relative="1" as="geometry">
            <mxPoint as="offset" />
          </mxGeometry>
        </mxCell>
        <mxCell id="uMUd2mh9hgz1i7TkNqJM-37" style="edgeStyle=orthogonalEdgeStyle;rounded=0;orthogonalLoop=1;jettySize=auto;html=1;" edge="1" parent="1" source="uMUd2mh9hgz1i7TkNqJM-36" target="uMUd2mh9hgz1i7TkNqJM-38">
          <mxGeometry relative="1" as="geometry">
            <mxPoint x="250" y="793" as="targetPoint" />
          </mxGeometry>
        </mxCell>
        <mxCell id="uMUd2mh9hgz1i7TkNqJM-36" value="Windows 10&lt;div&gt;Send events&lt;/div&gt;" style="text;html=1;align=center;verticalAlign=middle;resizable=0;points=[];autosize=1;strokeColor=none;fillColor=none;" vertex="1" parent="1">
          <mxGeometry x="20" y="773" width="90" height="40" as="geometry" />
        </mxCell>
        <mxCell id="uMUd2mh9hgz1i7TkNqJM-40" style="edgeStyle=orthogonalEdgeStyle;rounded=0;orthogonalLoop=1;jettySize=auto;html=1;" edge="1" parent="1" source="uMUd2mh9hgz1i7TkNqJM-38" target="uMUd2mh9hgz1i7TkNqJM-39">
          <mxGeometry relative="1" as="geometry" />
        </mxCell>
        <mxCell id="uMUd2mh9hgz1i7TkNqJM-38" value="Wazuh Manager&lt;div&gt;Trigger Alerts&amp;nbsp;&lt;span style=&quot;background-color: transparent; color: light-dark(rgb(0, 0, 0), rgb(255, 255, 255));&quot;&gt;&amp;amp; Perform Response&amp;nbsp;&lt;/span&gt;&lt;span style=&quot;background-color: transparent; color: light-dark(rgb(0, 0, 0), rgb(255, 255, 255));&quot;&gt;Actions&lt;/span&gt;&lt;/div&gt;" style="text;html=1;align=center;verticalAlign=middle;resizable=0;points=[];autosize=1;strokeColor=none;fillColor=none;" vertex="1" parent="1">
          <mxGeometry x="155" y="773" width="250" height="40" as="geometry" />
        </mxCell>
        <mxCell id="uMUd2mh9hgz1i7TkNqJM-42" style="edgeStyle=orthogonalEdgeStyle;rounded=0;orthogonalLoop=1;jettySize=auto;html=1;" edge="1" parent="1" source="uMUd2mh9hgz1i7TkNqJM-39" target="uMUd2mh9hgz1i7TkNqJM-41">
          <mxGeometry relative="1" as="geometry" />
        </mxCell>
        <mxCell id="uMUd2mh9hgz1i7TkNqJM-46" style="edgeStyle=orthogonalEdgeStyle;rounded=0;orthogonalLoop=1;jettySize=auto;html=1;" edge="1" parent="1" source="uMUd2mh9hgz1i7TkNqJM-39" target="uMUd2mh9hgz1i7TkNqJM-44">
          <mxGeometry relative="1" as="geometry" />
        </mxCell>
        <mxCell id="uMUd2mh9hgz1i7TkNqJM-48" style="edgeStyle=orthogonalEdgeStyle;rounded=0;orthogonalLoop=1;jettySize=auto;html=1;" edge="1" parent="1" source="uMUd2mh9hgz1i7TkNqJM-39" target="uMUd2mh9hgz1i7TkNqJM-47">
          <mxGeometry relative="1" as="geometry" />
        </mxCell>
        <mxCell id="uMUd2mh9hgz1i7TkNqJM-39" value="Shuffle&lt;div&gt;Receive Wazuh Alerts&amp;nbsp;&lt;span style=&quot;background-color: transparent; color: light-dark(rgb(0, 0, 0), rgb(255, 255, 255));&quot;&gt;&amp;amp; Send Responsive Actions&lt;/span&gt;&lt;/div&gt;" style="text;html=1;align=center;verticalAlign=middle;resizable=0;points=[];autosize=1;strokeColor=none;fillColor=none;" vertex="1" parent="1">
          <mxGeometry x="464.5" y="773" width="290" height="40" as="geometry" />
        </mxCell>
        <mxCell id="uMUd2mh9hgz1i7TkNqJM-41" value="OSINT&lt;div&gt;Enrich IOCS&lt;/div&gt;" style="text;html=1;align=center;verticalAlign=middle;resizable=0;points=[];autosize=1;strokeColor=none;fillColor=none;" vertex="1" parent="1">
          <mxGeometry x="564.5" y="700" width="90" height="40" as="geometry" />
        </mxCell>
        <mxCell id="uMUd2mh9hgz1i7TkNqJM-44" value="TheHive&lt;div&gt;Create Alert in Case Management System&lt;/div&gt;" style="text;html=1;align=center;verticalAlign=middle;resizable=0;points=[];autosize=1;strokeColor=none;fillColor=none;" vertex="1" parent="1">
          <mxGeometry x="484.5" y="870" width="250" height="40" as="geometry" />
        </mxCell>
        <mxCell id="uMUd2mh9hgz1i7TkNqJM-47" value="Email&lt;div&gt;Send Email &amp;amp; Responsive Action&lt;/div&gt;" style="text;html=1;align=center;verticalAlign=middle;resizable=0;points=[];autosize=1;strokeColor=none;fillColor=none;" vertex="1" parent="1">
          <mxGeometry x="810" y="773" width="200" height="40" as="geometry" />
        </mxCell>
      </root>
    </mxGraphModel>
  </diagram>
</mxfile>
